<svg width="519" height="519" viewBox="0 0 519 519" fill="none" xmlns="http://www.w3.org/2000/svg">
<path fill-rule="evenodd" clip-rule="evenodd" d="M304.65 304.65C356.474 322.812 416.414 311.179 457.842 269.751C486.895 240.698 501.295 202.54 501.04 164.462C537.642 257.628 518.293 367.692 442.993 442.992C367.692 518.293 257.628 537.642 164.462 501.04C202.54 501.294 240.698 486.895 269.752 457.842C311.179 416.414 322.812 356.474 304.65 304.65ZM214.347 214.347C162.523 196.185 102.583 207.817 61.1551 249.245C32.1018 278.298 17.7024 316.456 17.9566 354.535C-18.6453 261.368 0.703905 151.304 76.0043 76.004C151.305 0.703569 261.369 -18.6457 354.535 17.9563C316.457 17.702 278.299 32.1015 249.245 61.1547C207.818 102.583 196.185 162.523 214.347 214.347Z" fill="#6C96E8"/>
</svg>
